# xmcd CD database file
#
# Track frame offsets:
#	150
#	10780
#	22297
#	31762
#	44940
#	56977
#	69562
#	80567
#	92677
#	102532
#	114465
#	128510
#	140020
#	150847
#	163035
#	176025
#
# Disc length: 2511 seconds
#
# Revision: 0
# Processed by: cddbd v1.4b41PL2 Copyright (c) Steve Scherf et al.
# Submitted via: Feurio! 1.61 - http://www.feurio.com
#
DISCID=db09cd10
DTITLE=Guy Mitchell - Guy Mitchell
DYEAR=1900
DGENRE=
TTITLE0=Sippin' Soda
TTITLE1=Pretty Little Black Eyed Susie
TTITLE2=Knee Deep In The Blues
TTITLE3=She Wears Red Feathers
TTITLE4=Chicka Boom
TTITLE5=Music Music Music 
TTITLE6=Gold Lucky Seven
TTITLE7=My Heart Cries For You
TTITLE8=Rock-a-billy
TTITLE9=Feet Up (Pat Him On The Popo)
TTITLE10=Sparrow In The Tree Top
TTITLE11=Heartaches By The Number
TTITLE12=Singing The Blues
TTITLE13=The Cuff Of My Shirt
TTITLE14=My Shoes Keep Walking Back To You
TTITLE15=My Truly, Truly Fair
EXTD=Mcps -1996
EXTT0=
EXTT1=
EXTT2=
EXTT3=
EXTT4=
EXTT5=
EXTT6=
EXTT7=
EXTT8=
EXTT9=
EXTT10=
EXTT11=
EXTT12=
EXTT13=
EXTT14=
EXTT15=
PLAYORDER=
